<?xml version="1.0" standalone="no"?>
<!DOCTYPE svg PUBLIC "-//W3C//DTD SVG 20010904//EN"
 "http://www.w3.org/TR/2001/REC-SVG-20010904/DTD/svg10.dtd">
<svg version="1.0" xmlns="http://www.w3.org/2000/svg"
 width="256.000000pt" height="256.000000pt" viewBox="0 0 256.000000 256.000000"
 preserveAspectRatio="xMidYMid meet">
<metadata>
Created by potrace 1.11, written by Peter Selinger 2001-2013
</metadata>
<g transform="translate(0.000000,256.000000) scale(0.100000,-0.100000)"
fill="#000000" stroke="none">
<path d="M1135 2499 c-66 -32 -124 -59 -129 -59 -5 0 -17 -6 -25 -13 -9 -7
-43 -25 -76 -40 -33 -14 -182 -85 -330 -158 -149 -72 -320 -155 -381 -184 -61
-29 -114 -60 -117 -69 -9 -22 -9 -1369 -1 -1391 7 -16 121 -74 554 -283 69
-33 206 -99 305 -147 264 -128 324 -155 345 -155 24 0 61 17 345 155 132 64
267 130 300 145 231 107 542 264 553 277 9 13 12 170 12 704 0 638 -1 689 -17
705 -10 9 -67 41 -128 69 -60 29 -186 90 -280 135 -93 45 -233 113 -310 150
-77 37 -207 100 -290 140 -82 40 -163 74 -180 75 -20 2 -69 -16 -150 -56z"/>
</g>
</svg>
